<?xml version="1.0" encoding="UTF-8"?>
<svg id="Ebene_1" xmlns="http://www.w3.org/2000/svg" version="1.1" viewBox="0 0 64 64">
  <!-- Generator: Adobe Illustrator 29.8.2, SVG Export Plug-In . SVG Version: 2.1.1 Build 3)  -->
  <defs>
    <style>
      .st0 {
        fill: #ffc7d7;
        stroke: #000;
        stroke-miterlimit: 10;
        stroke-width: 1.5px;
      }

      .st1 {
        fill: #fafafa;
      }
    </style>
  </defs>
  <path d="M16.959,16.175l-1.205-4.354c-.111-.402.387-.688.678-.389l2.929,3.011"/>
  <path d="M22.494,10.023l-.537-5.778c-.042-.454.548-.665.803-.287l3.341,4.941"/>
  <path d="M33.263,8.282l2.191-5.982c.152-.416.748-.394.87.031l.903,5.932"/>
  <path d="M41.338,13.172l3.632-3.452c.288-.274.755.002.654.387l-1.297,4.922"/>
  <g>
    <g>
      <path class="st1" d="M36.224,62.409c-5.228,0-9.758-3.726-10.773-8.86-.121-.61-.228-1.183-.312-1.685-.167-.985-.327-1.974-.488-2.962-.708-4.356-1.44-8.862-2.709-13.096-.025-.082-.05-.185-.066-.28-.366-1.935-1.329-3.889-2.349-5.958-1.705-3.461-3.468-7.04-2.602-11.069.038-.176.094-.352.167-.52.665-1.502,2.075-3.013,3.731-3.013.178,0,.353.017.523.051.182-2.866,2.003-4.98,4.355-4.98,1.01,0,2.042.38,3.067,1.13l.119.087.1.108c.297.323.542.566.74.748.177-.579.5-1.337,1.198-2.036.81-.81,1.96-1.256,3.237-1.256,1.581,0,3.111.669,4.119,1.797.62.57,1.076,1.567,1.49,3.257.162-.027.339-.042.518-.042,2.066,0,3.741,1.886,4.548,3.5.045.092.077.167.107.243,1.034,2.706.58,3.999-.231,5.667-.821,1.688-2.062,4.241-.381,13.185.029.148,1.366,6.546,2.727,12.879.626,2.917.048,5.883-1.628,8.351-1.661,2.447-4.178,4.064-7.086,4.553l-.368.061c-.577.093-1.167.14-1.752.14h-.001Z"/>
      <path d="M34.162,10.319c1.12,0,2.305.478,3.055,1.36h0c.512.411.9,1.691,1.164,2.835.129.56.613.91,1.158.91.105,0,.211-.013.318-.04.144-.036.288-.053.431-.053,1.31,0,2.576,1.409,3.206,2.671.021.042.04.085.057.129,2.155,5.639-3.667,2.749-.695,18.572.004.025,1.37,6.56,2.735,12.917,1.108,5.159-2.291,10.235-7.495,11.109-.119.02-.237.04-.355.059-.509.082-1.017.121-1.517.121-4.458,0-8.412-3.141-9.303-7.652-.118-.596-.222-1.154-.305-1.643-.921-5.454-1.657-10.96-3.239-16.239-.01-.034-.019-.069-.025-.103-1.046-5.531-6.203-10.683-4.963-16.458.017-.08.042-.158.075-.233.493-1.114,1.468-2.114,2.358-2.114.196,0,.387.048.569.155.593.346.974.484,1.215.484.685,0,.219-1.115.225-1.68.021-1.974,1.098-3.886,2.87-3.886.642,0,1.375.251,2.182.841,1.198,1.301,1.913,1.74,2.358,1.74.602,0,.712-.802.861-1.362.119-.447.325-1.062.883-1.621.554-.554,1.348-.817,2.177-.817M34.162,7.319c-1.679,0-3.205.602-4.299,1.695-.224.224-.418.454-.587.682-1.17-.769-2.371-1.158-3.576-1.158-2.756,0-4.968,2.05-5.651,4.997-2.092.376-3.616,2.223-4.327,3.83-.119.271-.206.542-.265.818-.975,4.539.99,8.528,2.723,12.046.973,1.975,1.892,3.841,2.225,5.6.02.115.058.275.105.428,1.235,4.12,1.927,8.377,2.659,12.885.161.991.322,1.983.489,2.973.087.514.196,1.1.32,1.726,1.154,5.834,6.304,10.069,12.246,10.069.663,0,1.333-.054,1.992-.159l.323-.053.05-.008c3.319-.557,6.188-2.401,8.083-5.191,1.88-2.769,2.555-6.234,1.852-9.507-1.323-6.162-2.668-12.593-2.727-12.881-1.573-8.432-.468-10.706.264-12.212.89-1.83,1.526-3.608.292-6.836-.056-.144-.108-.262-.165-.378-.974-1.951-2.836-4.008-5.278-4.312-.416-1.318-.907-2.193-1.566-2.815-1.289-1.405-3.208-2.237-5.182-2.237h0v-.002Z"/>
    </g>
    <path class="st0" d="M32.473,26.871c-.745,2.301-1.815,2.452-3.928,2.821-5.497,1.428-1.328-10.111,4.249-8.665.118.031.238.059.358.082,7.773,1.441,4.234,13.047-.678,5.763h0Z"/>
    <path class="st0" d="M28.035,14.91c1.864,1.379.9,5.666-1.731,4.56-3.251-1.791-1.513-8.667,1.731-4.56h0Z"/>
    <path class="st0" d="M35.646,12.907c1.274,1.768.781,5.521-1.684,4.658-.259-.091-.493-.25-.669-.461-.791-.951-.7-2.287-.48-3.538.243-1.378,2.015-1.795,2.834-.66h0Z"/>
    <path class="st0" d="M39.831,17.029c2.082-.603,2.744,2.487,2.251,3.998-.697,2.139-4.034,1.124-3.648-1.762.077-.58.82-2.068,1.397-2.235h0Z"/>
    <path class="st0" d="M21.589,19.017c1.592.653,2.662,2.978.856,3.722-.128.053-.266.083-.405.087-1.631.057-2.247-1.462-2.053-2.877.104-.759.894-1.223,1.602-.932h0Z"/>
  </g>
</svg>