<svg width="36" height="36" viewBox="0 0 36 36" fill="none" xmlns="http://www.w3.org/2000/svg">
<path d="M10.7681 21.5709V22.4459M24.7681 21.5709V22.4459M17.7681 5.8209C18.9406 5.8209 20.1306 5.9784 21.2681 6.2759C24.3831 2.7759 30.0706 1.3059 32.5031 2.3209C34.9531 3.3359 31.7681 14.5709 31.7681 14.5709C32.7656 16.4434 33.5181 18.4909 33.5181 20.5909C33.5181 28.3959 26.4656 33.8209 17.7681 33.8209C9.07058 33.8209 2.01808 28.5709 2.01808 20.5909C2.01808 18.4034 2.89308 16.3909 3.76808 14.5709C3.76808 14.5709 0.460582 3.3359 2.89308 2.3209C5.32558 1.3059 11.1531 2.7234 14.2681 6.2234C15.4161 5.95934 16.5901 5.82433 17.7681 5.8209ZM16.4556 25.5084H19.0806L17.7681 26.8209L16.4556 25.5084Z" stroke="white" stroke-width="4" stroke-linecap="round" stroke-linejoin="round"/>
</svg>
