<svg width="39" height="39" viewBox="0 0 39 39" fill="none" xmlns="http://www.w3.org/2000/svg">
<path d="M36.195 24.75H28.25C27.3217 24.75 26.4315 25.1187 25.7751 25.7751C25.1187 26.4315 24.75 27.3217 24.75 28.25V36.195M10.75 4.345V7.25C10.75 8.64239 11.3031 9.97774 12.2877 10.9623C13.2723 11.9469 14.6076 12.5 16 12.5C16.9283 12.5 17.8185 12.8687 18.4749 13.5251C19.1313 14.1815 19.5 15.0717 19.5 16C19.5 17.925 21.075 19.5 23 19.5C23.9283 19.5 24.8185 19.1313 25.4749 18.4749C26.1313 17.8185 26.5 16.9283 26.5 16C26.5 14.075 28.075 12.5 30 12.5H35.5475M17.75 36.9125V30C17.75 29.0717 17.3813 28.1815 16.7249 27.5251C16.0685 26.8687 15.1783 26.5 14.25 26.5C13.3217 26.5 12.4315 26.1313 11.7751 25.4749C11.1187 24.8185 10.75 23.9283 10.75 23V21.25C10.75 20.3217 10.3813 19.4315 9.72487 18.7751C9.0685 18.1187 8.17826 17.75 7.25 17.75H2.0875M37 19.5C37 29.165 29.165 37 19.5 37C9.83502 37 2 29.165 2 19.5C2 9.83502 9.83502 2 19.5 2C29.165 2 37 9.83502 37 19.5Z" stroke="white" stroke-width="4" stroke-linecap="round" stroke-linejoin="round"/>
</svg>
