<svg width="38" height="38" viewBox="0 0 38 38" fill="none" xmlns="http://www.w3.org/2000/svg">
<path d="M2 35.25C2 30 5.2375 25.87 10.89 24.75C15.125 23.91 19.5 21.25 21.25 19.5M17.75 33.5C14.6771 33.5093 11.7129 32.3634 9.4454 30.2895C7.17787 28.2156 5.77259 25.3652 5.50829 22.3037C5.24398 19.2422 6.13996 16.1931 8.01851 13.7613C9.89706 11.3295 12.621 9.69248 15.65 9.175C25.625 7.25 28.25 6.34 31.75 2C33.5 5.5 35.25 9.315 35.25 16C35.25 25.625 26.885 33.5 17.75 33.5Z" stroke="white" stroke-width="4" stroke-linecap="round" stroke-linejoin="round"/>
</svg>
