<svg width="39" height="39" viewBox="0 0 39 39" fill="none" xmlns="http://www.w3.org/2000/svg">
<path d="M19.5 9.924V3.75C19.5 3.28587 19.6844 2.84075 20.0126 2.51256C20.3408 2.18437 20.7859 2 21.25 2M19.5 9.924C21.0108 8.57272 22.8804 7.68759 24.8832 7.37547C26.8859 7.06335 28.9362 7.33758 30.7865 8.16504C32.6369 8.99251 34.2082 10.3379 35.3107 12.0387C36.4133 13.7395 37 15.7231 37 17.75C37.0273 24.1939 34.6834 30.4227 30.4148 35.25C29.6313 36.1265 28.5763 36.7147 27.4188 36.9203C26.2613 37.1259 25.0682 36.9371 24.0308 36.384C22.6365 35.6401 21.0804 35.2509 19.5 35.2509C17.9197 35.2509 16.3636 35.6401 14.9693 36.384C13.9319 36.9371 12.7388 37.1259 11.5813 36.9203C10.4238 36.7147 9.36878 36.1265 8.58529 35.25C4.3308 30.4142 1.989 24.1909 2.00004 17.75C2.00008 15.7231 2.5868 13.7395 3.68937 12.0387C4.79193 10.3379 6.36321 8.99251 8.21354 8.16504C10.0639 7.33758 12.1142 7.06335 14.1169 7.37547C16.1197 7.68759 17.9893 8.57272 19.5 9.924Z" stroke="white" stroke-width="4" stroke-linecap="round" stroke-linejoin="round"/>
</svg>
